<svg width="44" height="34" viewBox="0 0 44 34" fill="none" xmlns="http://www.w3.org/2000/svg">
<path fill-rule="evenodd" clip-rule="evenodd" d="M22.0398 21.8739C21.4558 21.8739 20.8598 21.9639 20.3558 22.1599C20.0558 22.2714 19.7791 22.4375 19.5398 22.6499C19.349 22.8197 19.1958 23.0275 19.0901 23.26C18.9843 23.4925 18.9284 23.7445 18.9258 23.9999C18.9258 24.6499 19.2718 25.1039 19.5398 25.3479C19.8058 25.5939 20.1098 25.7439 20.3558 25.8399C20.8618 26.0359 21.4558 26.1239 22.0398 26.1239C22.6198 26.1239 23.2158 26.0359 23.7198 25.8399C23.9698 25.7439 24.2718 25.5939 24.5398 25.3479C24.7301 25.1782 24.8828 24.9707 24.9882 24.7385C25.0936 24.5064 25.1493 24.2548 25.1518 23.9999C25.1493 23.7445 25.0934 23.4924 24.9877 23.2599C24.8819 23.0274 24.7287 22.8196 24.5378 22.6499C24.2984 22.4375 24.0217 22.2714 23.7218 22.1599C23.183 21.9639 22.6131 21.867 22.0398 21.8739Z" fill="#FA9170"/>
<path d="M26.0738 17.292C26.4018 16.76 27.0538 16.124 28.0338 16.124C29.0098 16.124 29.6618 16.76 29.9918 17.292C30.3358 17.848 30.4998 18.522 30.4998 19.188C30.4998 19.852 30.3358 20.528 29.9918 21.082C29.6618 21.614 29.0118 22.25 28.0318 22.25C27.0538 22.25 26.4018 21.614 26.0718 21.082C25.7315 20.5094 25.5557 19.8541 25.5638 19.188C25.5638 18.522 25.7278 17.848 26.0738 17.292ZM16.0318 16.126C15.0558 16.126 14.4038 16.76 14.0718 17.292C13.7311 17.8652 13.5554 18.5213 13.5638 19.188C13.5638 19.852 13.7278 20.528 14.0738 21.082C14.4038 21.614 15.0538 22.25 16.0338 22.25C17.0098 22.25 17.6618 21.614 17.9938 21.082C18.3358 20.526 18.4998 19.852 18.4998 19.188C18.4998 18.522 18.3358 17.848 17.9918 17.292C17.6618 16.76 17.0118 16.126 16.0318 16.126Z" fill="#FA9170"/>
<path fill-rule="evenodd" clip-rule="evenodd" d="M10.1899 0.5C8.96193 0.5 7.54993 0.858 6.41793 1.832C5.24393 2.842 4.53993 4.376 4.53993 6.374V10.13C4.54193 10.718 4.64193 11.896 4.97793 12.878C5.08793 13.2 5.26193 13.626 5.55593 14.012C5.03267 15.0807 4.70742 16.2353 4.59593 17.42C4.49393 18.354 4.49193 19.336 4.50793 20.242C3.18793 20.702 1.81793 21.27 1.18793 21.678C0.864614 21.8984 0.640196 22.2363 0.562551 22.6198C0.484906 23.0033 0.560181 23.402 0.772319 23.7307C0.984457 24.0595 1.31666 24.2924 1.69808 24.3797C2.07949 24.467 2.47991 24.4018 2.81393 24.198C3.04593 24.048 3.73393 23.732 4.63793 23.388C4.77593 24.346 5.05393 25.218 5.44393 26.012C5.09676 26.229 4.75272 26.4511 4.41193 26.678C4.24647 26.7849 4.10368 26.9233 3.99171 27.0854C3.87975 27.2475 3.80081 27.43 3.75939 27.6226C3.71798 27.8152 3.7149 28.0141 3.75034 28.2079C3.78578 28.4016 3.85904 28.5865 3.96593 28.752C4.07283 28.9175 4.21127 29.0603 4.37335 29.1722C4.53543 29.2842 4.71798 29.3631 4.91056 29.4045C5.10315 29.446 5.30201 29.449 5.49579 29.4136C5.68957 29.3782 5.87447 29.3049 6.03993 29.198L6.30193 29.026C6.56393 28.856 6.86593 28.658 7.19393 28.458C8.37393 29.662 9.83793 30.592 11.3579 31.292C14.9199 32.932 19.1379 33.5 21.9999 33.5C24.8619 33.5 29.0799 32.93 32.6419 31.292C34.1619 30.592 35.6279 29.662 36.8059 28.458C37.1339 28.658 37.4359 28.856 37.6979 29.026L37.9599 29.198C38.2941 29.4139 38.7004 29.4882 39.0893 29.4045C39.4783 29.3209 39.8181 29.0862 40.0339 28.752C40.2498 28.4178 40.3241 28.0116 40.2405 27.6226C40.1568 27.2337 39.9221 26.8939 39.5879 26.678L39.3619 26.53C39.1419 26.386 38.8679 26.206 38.5559 26.012C38.9459 25.22 39.2259 24.346 39.3639 23.388C40.2679 23.732 40.9539 24.048 41.1879 24.198C41.522 24.4018 41.9224 24.467 42.3038 24.3797C42.6852 24.2924 43.0174 24.0595 43.2295 23.7307C43.4417 23.402 43.517 23.0033 43.4393 22.6198C43.3617 22.2363 43.1373 21.8984 42.8139 21.678C42.1839 21.27 40.8139 20.702 39.4919 20.242C39.5215 19.2998 39.4921 18.3566 39.4039 17.418C39.2923 16.234 38.967 15.08 38.4439 14.012C38.7379 13.626 38.9119 13.2 39.0239 12.878C39.3022 11.9881 39.4491 11.0623 39.4599 10.13V6.376C39.4599 4.376 38.7559 2.844 37.5819 1.832C36.4519 0.858 35.0379 0.5 33.8099 0.5C32.9939 0.5 32.1499 0.814 31.4679 1.12C30.7316 1.46624 30.0121 1.84734 29.3119 2.262L28.8859 2.508L28.8819 2.51C28.3539 2.816 27.8859 3.09 27.4679 3.304C27.2692 3.40849 27.0649 3.50196 26.8559 3.584C26.8152 3.59926 26.7739 3.61261 26.7319 3.624C26.2981 3.61928 25.865 3.58453 25.4359 3.52L25.1119 3.48C24.0794 3.35598 23.0398 3.29986 21.9999 3.312C20.4559 3.312 19.5799 3.394 18.8879 3.48L18.5639 3.52C18.1349 3.58454 17.7018 3.61929 17.2679 3.624C17.226 3.61259 17.1846 3.59924 17.1439 3.584C16.9347 3.50251 16.7304 3.40902 16.5319 3.304C16.0545 3.05037 15.583 2.78563 15.1179 2.51L14.6879 2.262C13.9884 1.84807 13.2696 1.46764 12.5339 1.122C11.8519 0.814 11.0059 0.5 10.1899 0.5ZM10.3239 27.228C10.9919 27.732 11.7619 28.176 12.6119 28.568C15.6719 29.976 19.4359 30.5 21.9999 30.5C24.5639 30.5 28.3259 29.976 31.3879 28.568C32.2379 28.176 33.0079 27.732 33.6759 27.228C33.3055 27.1639 32.9727 26.963 32.7433 26.6651C32.514 26.3672 32.4049 25.994 32.4375 25.6195C32.4702 25.245 32.6424 24.8964 32.9199 24.6428C33.1974 24.3892 33.56 24.249 33.9359 24.25C34.5899 24.25 35.2599 24.414 35.8799 24.64C36.2066 23.9542 36.3988 23.2122 36.4459 22.454C36.0474 22.3441 35.6385 22.2758 35.2259 22.25C34.8281 22.25 34.4466 22.092 34.1653 21.8107C33.884 21.5294 33.7259 21.1478 33.7259 20.75C33.7259 20.3522 33.884 19.9706 34.1653 19.6893C34.4466 19.408 34.8281 19.25 35.2259 19.25C35.6159 19.25 36.0559 19.31 36.4999 19.394C36.4999 18.842 36.4819 18.3 36.4219 17.744C36.2819 16.454 35.9159 15.308 35.0539 14.29C34.7065 13.8851 34.3124 13.5225 33.8799 13.21C33.559 12.9745 33.3448 12.6211 33.2844 12.2277C33.224 11.8342 33.3224 11.4329 33.5579 11.112C33.7934 10.7911 34.1468 10.5769 34.5402 10.5165C34.9337 10.4561 35.335 10.5545 35.6559 10.79C35.8959 10.966 36.1199 11.146 36.3319 11.33C36.4199 10.874 36.4599 10.396 36.4599 10.122V6.376C36.4599 5.124 36.0479 4.47 35.6239 4.106C35.1599 3.706 34.4999 3.5 33.8099 3.5C33.6699 3.5 33.3179 3.578 32.7019 3.856C32.1279 4.116 31.4859 4.472 30.8079 4.862C30.6792 4.93651 30.5505 5.01118 30.4219 5.086C29.8859 5.396 29.3319 5.718 28.8419 5.97C28.5319 6.13 28.2099 6.282 27.8999 6.398C27.5455 6.53864 27.1691 6.61582 26.7879 6.626C26.1968 6.62376 25.6066 6.57898 25.0219 6.492L24.7479 6.458C23.8362 6.34875 22.9182 6.29998 21.9999 6.312C20.5839 6.312 19.8299 6.386 19.2539 6.458L18.9779 6.492C18.4779 6.558 17.9559 6.624 17.2119 6.624C16.7859 6.624 16.3879 6.504 16.1019 6.398C15.7791 6.27417 15.4638 6.13125 15.1579 5.97C14.6679 5.718 14.1139 5.396 13.5779 5.086L13.1919 4.862C12.5139 4.472 11.8719 4.114 11.2979 3.856C10.6819 3.576 10.3299 3.5 10.1899 3.5C9.50193 3.5 8.83993 3.706 8.37593 4.106C7.95193 4.47 7.53993 5.126 7.53993 6.376V10.12C7.53993 10.394 7.57993 10.872 7.66793 11.328C7.88193 11.144 8.10793 10.964 8.34393 10.788C8.50283 10.6714 8.68315 10.5872 8.87458 10.5403C9.06601 10.4934 9.2648 10.4846 9.45962 10.5145C9.65444 10.5444 9.84146 10.6124 10.01 10.7145C10.1786 10.8167 10.3253 10.9511 10.4419 11.11C10.5585 11.2689 10.6427 11.4492 10.6897 11.6406C10.7366 11.8321 10.7453 12.0309 10.7154 12.2257C10.6855 12.4205 10.6176 12.6075 10.5154 12.7761C10.4132 12.9446 10.2788 13.0914 10.1199 13.208C9.63993 13.56 9.25393 13.922 8.94593 14.288C8.08593 15.308 7.71793 16.452 7.57793 17.742C7.51793 18.298 7.49793 18.842 7.49793 19.392C7.94393 19.306 8.38393 19.248 8.77393 19.248C9.17176 19.248 9.55329 19.406 9.83459 19.6873C10.1159 19.9686 10.2739 20.3502 10.2739 20.748C10.2739 21.1458 10.1159 21.5274 9.83459 21.8087C9.55329 22.09 9.17176 22.248 8.77393 22.248C8.56193 22.248 8.14993 22.308 7.55393 22.452C7.60793 23.248 7.80393 23.974 8.11993 24.638C8.74052 24.3966 9.39826 24.2647 10.0639 24.248C10.4399 24.247 10.8025 24.3872 11.08 24.6408C11.3575 24.8944 11.5296 25.243 11.5623 25.6175C11.595 25.992 11.4859 26.3652 11.2565 26.6631C11.0272 26.961 10.6944 27.1639 10.3239 27.228Z" fill="#FA9170"/>
</svg>
