<svg width="44" height="44" viewBox="0 0 44 44" fill="none" xmlns="http://www.w3.org/2000/svg">
<path fill-rule="evenodd" clip-rule="evenodd" d="M20.028 7.6C20.372 7.15 20.996 6.5 22 6.5C23.004 6.5 23.628 7.15 23.972 7.6C24.302 8.028 24.632 8.622 24.972 9.232L25.214 9.668L25.328 9.868L25.526 9.914L26.002 10.022C26.656 10.17 27.308 10.316 27.808 10.514C28.36 10.732 29.108 11.154 29.398 12.084C29.682 12.994 29.324 13.766 29.012 14.264C28.722 14.724 28.282 15.236 27.832 15.762L27.512 16.138L27.348 16.332C27.352 16.404 27.362 16.488 27.372 16.602L27.42 17.102C27.488 17.804 27.554 18.484 27.53 19.028C27.506 19.6 27.37 20.464 26.594 21.05C25.794 21.658 24.914 21.526 24.354 21.364C23.838 21.218 23.228 20.936 22.614 20.654L22.17 20.448L22 20.37L21.83 20.45L21.384 20.654C20.772 20.936 20.162 21.218 19.646 21.364C19.086 21.524 18.206 21.658 17.406 21.05C16.632 20.464 16.494 19.6 16.47 19.03C16.446 18.484 16.51 17.804 16.58 17.1L16.628 16.6L16.654 16.332C16.599 16.267 16.5437 16.2023 16.488 16.138L16.168 15.762C15.718 15.236 15.278 14.722 14.988 14.262C14.676 13.766 14.318 12.994 14.602 12.082C14.89 11.156 15.64 10.732 16.192 10.514C16.692 10.316 17.344 10.17 17.998 10.022L18.474 9.914L18.674 9.868L18.786 9.668L19.028 9.232C19.368 8.622 19.698 8.028 20.028 7.6ZM22 10.068C21.884 10.27 21.754 10.502 21.602 10.776L21.406 11.128L21.36 11.208C21.204 11.496 20.944 11.972 20.51 12.302C20.068 12.638 19.534 12.754 19.224 12.822L19.136 12.84L18.756 12.926C18.404 13.006 18.118 13.07 17.876 13.132C18.034 13.326 18.24 13.57 18.508 13.884L18.768 14.188L18.828 14.256C19.044 14.506 19.392 14.906 19.554 15.426C19.714 15.938 19.658 16.466 19.624 16.798L19.614 16.892L19.574 17.298C19.5432 17.6044 19.5152 17.9111 19.49 18.218C19.7 18.126 19.936 18.018 20.218 17.888L20.576 17.724L20.656 17.684C20.944 17.55 21.442 17.314 22 17.314C22.558 17.314 23.056 17.55 23.344 17.686L23.424 17.724L23.782 17.888C24.062 18.018 24.302 18.128 24.51 18.218C24.4848 17.9111 24.4568 17.6044 24.426 17.298L24.386 16.892L24.376 16.798C24.342 16.464 24.286 15.938 24.446 15.426C24.606 14.906 24.956 14.506 25.172 14.256L25.232 14.188L25.492 13.884C25.76 13.57 25.966 13.326 26.124 13.132C25.882 13.072 25.596 13.006 25.244 12.926L24.864 12.84L24.776 12.82C24.466 12.754 23.932 12.638 23.49 12.3C23.056 11.972 22.796 11.496 22.64 11.21L22.594 11.128L22.398 10.776C22.246 10.502 22.118 10.27 22 10.068Z" fill="#FA9170"/>
<path fill-rule="evenodd" clip-rule="evenodd" d="M12.996 1.21399C15.9723 0.726104 18.984 0.487276 22 0.499994C25.656 0.499994 28.678 0.821994 31.004 1.21399L31.274 1.25999C33.294 1.59799 34.974 1.87999 36.286 3.49599C37.128 4.53399 37.4 5.65599 37.462 6.90599L38.446 7.23399C39.372 7.54199 40.186 7.81399 40.828 8.11399C41.524 8.43799 42.162 8.85399 42.65 9.53199C43.138 10.208 43.332 10.946 43.42 11.708C43.5 12.414 43.5 13.268 43.5 14.248V14.536C43.5 15.34 43.5 16.05 43.44 16.644C43.376 17.286 43.234 17.912 42.88 18.516C42.522 19.122 42.044 19.55 41.514 19.918C41.024 20.258 40.404 20.604 39.7 20.994L34.42 23.928C33.34 26.05 31.86 27.942 29.82 29.308C28.07 30.482 25.976 31.226 23.5 31.438V35.5H26.36C27.1692 35.5 27.9533 35.7804 28.5791 36.2935C29.2048 36.8065 29.6334 37.5205 29.792 38.314L30.23 40.5H34C34.3978 40.5 34.7794 40.658 35.0607 40.9393C35.342 41.2206 35.5 41.6022 35.5 42C35.5 42.3978 35.342 42.7794 35.0607 43.0607C34.7794 43.342 34.3978 43.5 34 43.5H10C9.60218 43.5 9.22064 43.342 8.93934 43.0607C8.65804 42.7794 8.5 42.3978 8.5 42C8.5 41.6022 8.65804 41.2206 8.93934 40.9393C9.22064 40.658 9.60218 40.5 10 40.5H13.77L14.208 38.314C14.3666 37.5205 14.7952 36.8065 15.4209 36.2935C16.0467 35.7804 16.8308 35.5 17.64 35.5H20.5V31.438C18.024 31.226 15.93 30.482 14.18 29.31C12.142 27.942 10.66 26.05 9.58 23.928L4.3 20.994C3.6787 20.6641 3.07335 20.3051 2.486 19.918C1.93285 19.5586 1.46687 19.0803 1.122 18.518C0.797158 17.9431 0.605129 17.3028 0.56 16.644C0.5 16.05 0.5 15.34 0.5 14.536V14.246C0.5 13.27 0.5 12.414 0.58 11.708C0.668 10.946 0.86 10.208 1.35 9.53199C1.838 8.85399 2.476 8.43799 3.17 8.11199C3.816 7.81199 4.628 7.54199 5.554 7.23399L6.538 6.90599C6.6 5.65399 6.872 4.53399 7.714 3.49599C9.028 1.87799 10.706 1.59599 12.728 1.25999L12.996 1.21399ZM16.83 40.5H27.17L26.85 38.902C26.8274 38.7887 26.7662 38.6867 26.6768 38.6134C26.5875 38.5401 26.4755 38.5001 26.36 38.5H17.64C17.5245 38.5001 17.4125 38.5401 17.3232 38.6134C17.2338 38.6867 17.1726 38.7887 17.15 38.902L16.83 40.5ZM6.604 10.046L6.576 10.056C5.556 10.396 4.908 10.616 4.436 10.834C4.002 11.034 3.862 11.176 3.784 11.286C3.704 11.394 3.616 11.572 3.562 12.048C3.502 12.564 3.5 13.248 3.5 14.324V14.47C3.5 15.36 3.5 15.918 3.544 16.346C3.584 16.738 3.648 16.896 3.708 16.996C3.766 17.096 3.872 17.228 4.196 17.454C4.548 17.698 5.036 17.97 5.816 18.404L7.946 19.588C7.09 16.448 6.746 13.088 6.606 10.048L6.604 10.046ZM36.054 19.586C36.91 16.446 37.254 13.086 37.396 10.046L37.424 10.056C38.444 10.396 39.092 10.616 39.564 10.834C39.998 11.034 40.138 11.176 40.216 11.286C40.296 11.394 40.384 11.572 40.438 12.048C40.498 12.564 40.5 13.248 40.5 14.324V14.47C40.5 15.36 40.5 15.918 40.456 16.346C40.416 16.738 40.352 16.896 40.292 16.996C40.234 17.096 40.128 17.228 39.804 17.454C39.45 17.698 38.964 17.97 38.184 18.404L36.054 19.586ZM22 3.49999C18.52 3.49999 15.666 3.80599 13.496 4.17199C11.082 4.57999 10.576 4.73199 10.044 5.38799C9.52 6.03199 9.47 6.64399 9.576 9.35399C9.756 13.87 10.352 18.746 12.196 22.454C13.108 24.282 14.3 25.778 15.852 26.818C17.392 27.852 19.382 28.5 22 28.5C24.62 28.5 26.608 27.852 28.15 26.818C29.702 25.778 30.892 24.282 31.802 22.452C33.648 18.746 34.244 13.872 34.422 9.35199C34.532 6.64399 34.482 6.03199 33.958 5.38799C33.426 4.73199 32.918 4.57999 30.504 4.17199C27.6929 3.71208 24.8484 3.4873 22 3.49999Z" fill="#FA9170"/>
</svg>
