<svg width="46" height="37" viewBox="0 0 46 37" fill="none" xmlns="http://www.w3.org/2000/svg">
<path d="M27.3218 35V28.4159C28.9107 27.7716 30.995 26.8298 32.1924 25.6611C34.0105 23.8865 35.2486 21.6256 35.7502 19.1642C36.2518 16.7028 35.9944 14.1515 35.0104 11.833C34.0265 9.5144 32.3602 7.53269 30.2224 6.13844C28.0846 4.74418 25.5711 4 23 4C20.4289 4 17.9154 4.74418 15.7776 6.13844C13.6398 7.53269 11.9735 9.5144 10.9896 11.833C10.0056 14.1515 9.74819 16.7028 10.2498 19.1642C10.7514 21.6256 11.9895 23.8865 13.8076 25.6611C15.005 26.8298 17.0778 27.7716 18.6667 28.4145C18.6753 28.8868 18.6753 31.082 18.6667 34.9986H27.3218V35Z" stroke="black" stroke-width="3" stroke-linejoin="round"/>
<path d="M3.4 26L4.8 24.5882M42.6 26L41.2 24.5882M7.6 3.41176L6.2 2M38.4 3.41176L39.8 2M44 13.2941H42.6M3.4 13.2941H2" stroke="black" stroke-width="4" stroke-linecap="round"/>
</svg>
