<svg width="46" height="28" viewBox="0 0 46 28" fill="none" xmlns="http://www.w3.org/2000/svg">
<path d="M13.4545 26V24C13.4545 21.3478 14.4602 18.8043 16.2503 16.9289C18.0405 15.0536 20.4684 14 23 14M23 14C25.5316 14 27.9595 15.0536 29.7497 16.9289C31.5398 18.8043 32.5455 21.3478 32.5455 24V26M23 14C24.519 14 25.9757 13.3679 27.0498 12.2426C28.1239 11.1174 28.7273 9.5913 28.7273 8C28.7273 6.4087 28.1239 4.88258 27.0498 3.75736C25.9757 2.63214 24.519 2 23 2C21.481 2 20.0243 2.63214 18.9502 3.75736C17.8761 4.88258 17.2727 6.4087 17.2727 8C17.2727 9.5913 17.8761 11.1174 18.9502 12.2426C20.0243 13.3679 21.481 14 23 14ZM2 26V24C2 22.4087 2.60341 20.8826 3.67748 19.7574C4.75155 18.6321 6.20831 18 7.72727 18M7.72727 18C8.73992 18 9.71109 17.5786 10.4271 16.8284C11.1432 16.0783 11.5455 15.0609 11.5455 14C11.5455 12.9391 11.1432 11.9217 10.4271 11.1716C9.71109 10.4214 8.73992 10 7.72727 10C6.71463 10 5.74346 10.4214 5.02741 11.1716C4.31136 11.9217 3.90909 12.9391 3.90909 14C3.90909 15.0609 4.31136 16.0783 5.02741 16.8284C5.74346 17.5786 6.71463 18 7.72727 18ZM44 26V24C44 22.4087 43.3966 20.8826 42.3225 19.7574C41.2484 18.6321 39.7917 18 38.2727 18M38.2727 18C39.2854 18 40.2565 17.5786 40.9726 16.8284C41.6886 16.0783 42.0909 15.0609 42.0909 14C42.0909 12.9391 41.6886 11.9217 40.9726 11.1716C40.2565 10.4214 39.2854 10 38.2727 10C37.2601 10 36.2889 10.4214 35.5729 11.1716C34.8568 11.9217 34.4545 12.9391 34.4545 14C34.4545 15.0609 34.8568 16.0783 35.5729 16.8284C36.2889 17.5786 37.2601 18 38.2727 18Z" stroke="black" stroke-width="3" stroke-linecap="round" stroke-linejoin="round"/>
</svg>
