<svg width="45" height="45" viewBox="0 0 45 45" fill="none" xmlns="http://www.w3.org/2000/svg">
<path d="M16.875 18.75H16.8938M28.125 18.75H28.1438M5.625 22.5C5.625 24.7161 6.06148 26.9104 6.90953 28.9578C7.75758 31.0052 9.00058 32.8654 10.5676 34.4324C12.1346 35.9994 13.9948 37.2424 16.0422 38.0905C18.0896 38.9385 20.2839 39.375 22.5 39.375C24.7161 39.375 26.9104 38.9385 28.9578 38.0905C31.0052 37.2424 32.8654 35.9994 34.4324 34.4324C35.9994 32.8654 37.2424 31.0052 38.0905 28.9578C38.9385 26.9104 39.375 24.7161 39.375 22.5C39.375 20.2839 38.9385 18.0896 38.0905 16.0422C37.2424 13.9948 35.9994 12.1346 34.4324 10.5676C32.8654 9.00058 31.0052 7.75758 28.9578 6.90953C26.9104 6.06148 24.7161 5.625 22.5 5.625C20.2839 5.625 18.0896 6.06148 16.0422 6.90953C13.9948 7.75758 12.1346 9.00058 10.5676 10.5676C9.00058 12.1346 7.75758 13.9948 6.90953 16.0422C6.06148 18.0896 5.625 20.2839 5.625 22.5Z" stroke="white" stroke-width="3.75" stroke-linecap="round" stroke-linejoin="round"/>
<path d="M17.8125 28.125C18.4235 28.7486 19.1528 29.2441 19.9577 29.5823C20.7626 29.9205 21.6269 30.0947 22.5 30.0947C23.3731 30.0947 24.2374 29.9205 25.0423 29.5823C25.8472 29.2441 26.5765 28.7486 27.1875 28.125M22.5 5.625C21.5054 5.625 20.5516 6.02009 19.8484 6.72335C19.1451 7.42661 18.75 8.38044 18.75 9.375C18.75 10.3696 19.1451 11.3234 19.8484 12.0267C20.5516 12.7299 21.5054 13.125 22.5 13.125" stroke="white" stroke-width="3.75" stroke-linecap="round" stroke-linejoin="round"/>
</svg>
